<mxfile host="app.diagrams.net" modified="2023-08-25T05:56:09.602Z" agent="Mozilla/5.0 (Macintosh; Intel Mac OS X 10_15_7) AppleWebKit/537.36 (KHTML, like Gecko) Chrome/116.0.0.0 Safari/537.36" version="21.6.8" etag="bbtF16EcuTKJH0BAmkcK" type="github">
  <diagram name="第 1 页" id="o_rCr5rxl5FmhGAvN7Pd">
    <mxGraphModel>
      <root>
        <mxCell id="0" />
        <mxCell id="1" parent="0" />
      </root>
    </mxGraphModel>
  </diagram>
</mxfile>
